#!OML:ASF X:\für Bonn\!DataBase\2005_08_11_Bastian_Final\c3d\Bastian.ASF
:FULLY-SPECIFIED
:DEGREES
177
root -6.70428 17.5139 4.41453 458.641 -163.685 42.8836
lowerback 29.6767 7.28538 -18.4464
upperback 2.9172 2.39208 -14.4836
thorax -12.1199 1.66104 -7.19426
lowerneck -32.7818 -2.78528 -4.04388
upperneck -11.6282 -4.1344 10.2417
head 1.48557 -2.61462 3.53027
rclavicle 2.54444e-014 1.11717e-013
rhumerus 76.3665 -16.243 -39.0699
rradius 21.663
rwrist -53.9693
rhand -26.3929 -14.234
rfingers 7.12502
rthumb 0.1663 -44.2137
lclavicle 2.54444e-014 1.11717e-013
lhumerus 83.2358 29.0025 24.4288
lradius 33.28
lwrist 46.6622
lhand -27.163 -9.72491
lfingers 7.12502
lthumb -0.577521 20.2541
rfemur 36.4591 -4.59557 5.90954
rtibia 49.2453
rfoot 19.0095 9.24409
rtoes -36.4905
lfemur -61.3364 26.9275 26.6199
ltibia 67.1132
lfoot -5.19319 8.81845
ltoes 6.43448
178
root -6.55478 17.5196 4.18633 459.471 -162.378 42.1663
lowerback 28.9503 7.09809 -18.3007
upperback 2.72037 2.33722 -14.3272
thorax -12.0447 1.63038 -7.01102
lowerneck -32.466 -2.75799 -3.87511
upperneck -11.9868 -4.11912 10.1209
head 1.32984 -2.63636 3.47106
rclavicle 9.62118e-014 5.4467e-014
rhumerus 75.5979 -15.243 -37.8851
rradius 22.1347
rwrist -55.7973
rhand -27.6078 -14.9492
rfingers 7.12502
rthumb -1.00715 -44.9266
lclavicle 9.62118e-014 5.4467e-014
lhumerus 81.5965 29.0064 22.1033
lradius 34.1192
lwrist 47.6709
lhand -27.2778 -9.64831
lfingers 7.12502
lthumb -0.688424 20.3303
rfemur 36.0656 -4.48233 5.5444
rtibia 50.6468
rfoot 17.6424 8.61493
rtoes -34.8166
lfemur -60.6589 27.2265 26.2266
ltibia 69.4796
lfoot -6.51442 8.61869
ltoes 8.69277
179
root -6.40667 17.5223 3.96416 460.356 -161.115 41.3744
lowerback 28.2697 6.94213 -18.1941
upperback 2.48435 2.28281 -14.1466
thorax -12.0292 1.60416 -6.79308
lowerneck -32.1028 -2.77611 -3.81945
upperneck -12.3216 -4.11986 10.0934
head 1.1841 -2.65433 3.45859
rclavicle 1.19271e-013 1.78906e-013
rhumerus 74.7969 -14.2235 -36.663
rradius 22.6938
rwrist -57.8504
rhand -29.3174 -15.946
rfingers 7.12502
rthumb -2.65822 -45.9092
lclavicle 1.19271e-013 1.78906e-013
lhumerus 79.9688 28.8876 19.7508
lradius 34.9548
lwrist 48.7727
lhand -27.3755 -9.70228
lfingers 7.12502
lthumb -0.78278 20.276
rfemur 35.6474 -4.48123 5.05803
rtibia 52.0589
rfoot 16.309 7.68046
rtoes -32.3516
lfemur -59.8269 27.5438 25.8246
ltibia 71.5256
lfoot -8.15733 8.51871
ltoes 12.394
180
root -6.25362 17.5135 3.73899 461.327 -159.843 40.4672
lowerback 27.6074 6.78806 -18.0183
upperback 2.24702 2.24381 -13.959
thorax -12.0199 1.58169 -6.60959
lowerneck -31.9529 -2.82317 -3.75102
upperneck -12.4739 -4.17533 10.0433
head 1.12036 -2.68646 3.42826
rclavicle 5.92378e-014 7.15625e-015
rhumerus 74.0256 -13.2439 -35.3453
rradius 23.2024
rwrist -60.2351
rhand -31.6067 -17.1646
rfingers 7.12502
rthumb -4.86902 -47.0886
lclavicle 5.92378e-014 7.15625e-015
lhumerus 78.6971 28.6339 17.7847
lradius 35.6273
lwrist 49.615
lhand -27.3697 -9.80783
lfingers 7.12502
lthumb -0.777125 20.1705
rfemur 35.2037 -4.73112 4.44348
rtibia 53.3825
rfoot 14.9063 6.88771
rtoes -29.6926
lfemur -58.8952 27.8548 25.4569
ltibia 73.2911
lfoot -9.81666 8.31533
ltoes 14.4367
181
root -6.09598 17.4891 3.51237 462.359 -158.569 39.4822
lowerback 26.92 6.64534 -17.772
upperback 2.01325 2.24473 -13.7666
thorax -11.9912 1.57246 -6.46837
lowerneck -31.9548 -2.88562 -3.66256
upperneck -12.48 -4.26703 9.98216
head 1.11991 -2.72633 3.38495
rclavicle -5.2181e-014 -2.18663e-014
rhumerus 73.2041 -12.2624 -33.9676
rradius 23.7322
rwrist -62.891
rhand -34.4891 -18.6404
rfingers 7.12502
rthumb -7.65166 -48.4819
lclavicle -5.2181e-014 -2.18663e-014
lhumerus 77.4736 28.3097 15.7655
lradius 36.3391
lwrist 50.6359
lhand -27.4369 -9.90567
lfingers 7.12502
lthumb -0.842078 20.0724
rfemur 34.7621 -5.19801 3.66783
rtibia 54.5759
rfoot 13.3433 6.50604
rtoes -27.6385
lfemur -57.7858 28.0873 25.208
ltibia 74.83
lfoot -11.3076 8.21855
ltoes 15.2704
182
root -5.94345 17.4604 3.29655 463.447 -157.272 38.3773
lowerback 26.2844 6.52061 -17.459
upperback 1.77523 2.26897 -13.5495
thorax -11.9872 1.57102 -6.34706
lowerneck -32.0727 -2.92665 -3.41331
upperneck -12.3564 -4.39584 9.75233
head 1.16341 -2.78737 3.2552
rclavicle 8.49804e-015 -3.01159e-014
rhumerus 72.3125 -11.2646 -32.2569
rradius 24.2689
rwrist -66.0081
rhand -37.9152 -20.452
rfingers 7.12502
rthumb -10.9575 -50.146
lclavicle 8.49804e-015 -3.01159e-014
lhumerus 76.3815 27.9111 13.8288
lradius 37.072
lwrist 51.7134
lhand -27.5457 -10.0272
lfingers 7.12502
lthumb -0.947115 19.9505
rfemur 34.4371 -5.77031 2.80596
rtibia 55.604
rfoot 11.7765 6.25685
rtoes -25.4704
lfemur -56.6065 28.2405 25.1099
ltibia 76.1707
lfoot -12.9158 8.16094
ltoes 15.9703
183
root -5.79247 17.431 3.08793 464.617 -156.012 37.1905
lowerback 25.5971 6.38518 -17.1721
upperback 1.54623 2.28871 -13.3128
thorax -11.9425 1.56937 -6.18564
lowerneck -32.2493 -2.92354 -3.05704
upperneck -12.1335 -4.50863 9.4059
head 1.23541 -2.84107 3.07077
rclavicle -1.20364e-013 9.06458e-014
rhumerus 71.4266 -10.2148 -30.4558
rradius 24.8866
rwrist -69.3002
rhand -41.7883 -22.5811
rfingers 7.12502
rthumb -14.6912 -52.0406
lclavicle -1.20364e-013 9.06458e-014
lhumerus 75.2362 27.5107 11.7799
lradius 37.8698
lwrist 52.934
lhand -27.7007 -10.1214
lfingers 7.12502
lthumb -1.0968 19.8555
rfemur 34.1569 -6.47108 1.77624
rtibia 56.4976
rfoot 10.2515 6.21439
rtoes -23.5288
lfemur -55.4201 28.3455 25.1089
ltibia 77.3536
lfoot -14.5425 8.11775
ltoes 16.118
184
root -5.64024 17.4053 2.88093 465.825 -154.773 35.9052
lowerback 24.9151 6.20936 -16.8589
upperback 1.3218 2.26624 -13.0724
thorax -11.8886 1.55016 -6.02021
lowerneck -32.2881 -2.87494 -2.66216
upperneck -11.9358 -4.56582 9.03413
head 1.27978 -2.86968 2.8789
rclavicle -5.56597e-014 -4.53229e-014
rhumerus 70.5319 -9.10381 -28.8825
rradius 25.6505
rwrist -72.4366
rhand -45.7897 -25.0545
rfingers 7.12502
rthumb -18.5434 -54.1907
lclavicle -5.56597e-014 -4.53229e-014
lhumerus 74.1754 27.0724 9.84071
lradius 38.6658
lwrist 54.0733
lhand -27.8831 -10.1379
lfingers 7.12502
lthumb -1.27303 19.8381
rfemur 33.9638 -7.27362 0.682323
rtibia 57.2523
rfoot 8.77174 6.38011
rtoes -22.7373
lfemur -54.2056 28.401 25.2509
ltibia 78.3858
lfoot -16.0668 8.03024
ltoes 16.1258
185
root -5.48122 17.3767 2.67048 467.07 -153.535 34.5266
lowerback 24.2359 6.00327 -16.5175
upperback 1.11689 2.21935 -12.8022
thorax -11.807 1.52052 -5.82794
lowerneck -32.3669 -2.79812 -2.24005
upperneck -11.6645 -4.59793 8.62329
head 1.34803 -2.8828 2.67191
rclavicle 1.05952e-013 2.42517e-014
rhumerus 69.6651 -8.00761 -27.609
rradius 26.5153
rwrist -75.2113
rhand -49.6845 -28.0491
rfingers 7.12502
rthumb -22.2863 -56.7839
lclavicle 1.05952e-013 2.42517e-014
lhumerus 73.1741 26.6408 7.99271
lradius 39.4371
lwrist 55.1273
lhand -28.0873 -10.1183
lfingers 7.12502
lthumb -1.47021 19.8564
rfemur 33.8359 -8.08253 -0.338641
rtibia 57.8752
rfoot 7.46948 6.41216
rtoes -20.8501
lfemur -52.8852 28.3999 25.5549
ltibia 79.2587
lfoot -17.0308 7.9464
ltoes 14.4922
186
root -5.3206 17.343 2.46341 468.346 -152.297 33.0642
lowerback 23.5445 5.75961 -16.1817
upperback 0.915133 2.13056 -12.4861
thorax -11.7091 1.4759 -5.57007
lowerneck -32.4166 -2.67605 -1.82968
upperneck -11.3533 -4.56421 8.20928
head 1.4233 -2.85922 2.47263
rclavicle -1.54257e-013 -2.38542e-015
rhumerus 68.8864 -6.89926 -26.7324
rradius 27.4362
rwrist -77.5169
rhand -53.1637 -31.5389
rfingers 7.12502
rthumb -25.6225 -59.8351
lclavicle -1.54257e-013 -2.38542e-015
lhumerus 72.1513 26.2038 6.21183
lradius 40.1914
lwrist 56.0696
lhand -28.3419 -10.0751
lfingers 7.12502
lthumb -1.71609 19.8977
rfemur 33.7977 -8.86003 -1.31608
rtibia 58.3505
rfoot 6.26188 6.42363
rtoes -19.1176
lfemur -51.5162 28.3252 26.0099
ltibia 80.0241
lfoot -17.7411 7.91885
ltoes 12.5746
187
root -5.15957 17.304 2.25852 469.664 -151.119 31.5495
lowerback 22.8312 5.47131 -15.8558
upperback 0.734607 1.99436 -12.1692
thorax -11.5685 1.41152 -5.29157
lowerneck -32.4365 -2.55399 -1.45229
upperneck -11.0577 -4.51696 7.8517
head 1.49384 -2.82744 2.29886
rclavicle -7.63333e-014 2.50469e-014
rhumerus 68.1992 -5.90606 -26.5481
rradius 28.3586
rwrist -79.003
rhand -55.969 -35.2104
rfingers 7.12502
rthumb -28.3066 -63.0912
lclavicle -7.63333e-014 2.50469e-014
lhumerus 71.191 25.7996 4.57187
lradius 40.9003
lwrist 56.8672
lhand -28.5334 -10.0308
lfingers 7.12502
lthumb -1.90108 19.9405
rfemur 33.8027 -9.59173 -2.27485
rtibia 58.6911
rfoot 5.28396 6.37896
rtoes -17.5307
lfemur -50.1343 28.1247 26.538
ltibia 80.6983
lfoot -18.4565 7.96668
ltoes 11.663
188
root -5.00059 17.2613 2.05699 471 -149.915 30.0081
lowerback 22.0782 5.17427 -15.4067
upperback 0.860204 1.91725 -11.6427
thorax -11.635 1.29636 -5.31176
lowerneck -32.4491 -2.45909 -1.10082
upperneck -10.7625 -4.49522 7.52177
head 1.56681 -2.80694 2.13576
rclavicle -4.01545e-014 -1.27222e-014
rhumerus 67.5305 -5.07273 -26.8868
rradius 29.1976
rwrist -79.8711
rhand -58.0286 -38.7429
rfingers 7.12502
rthumb -30.2732 -66.2804
lclavicle -4.01545e-014 -1.27222e-014
lhumerus 70.4303 25.4188 3.18668
lradius 41.5232
lwrist 57.5042
lhand -28.6229 -9.93767
lfingers 7.12502
lthumb -1.98751 20.0328
rfemur 33.7817 -10.2011 -3.06835
rtibia 58.9085
rfoot 4.56519 6.11693
rtoes -15.6345
lfemur -48.7246 27.8992 27.1784
ltibia 81.299
lfoot -19.0408 8.14225
ltoes 11.3959
189
root -4.84483 17.2183 1.86051 472.397 -148.757 28.3996
lowerback 21.3494 4.86291 -14.9619
upperback 0.691025 1.78013 -11.3409
thorax -11.4172 1.22992 -5.08536
lowerneck -32.5013 -2.42609 -0.816172
upperneck -10.4039 -4.53392 7.28421
head 1.67186 -2.80627 2.00584
rclavicle -1.39149e-014 2.46493e-014
rhumerus 66.9314 -4.35523 -27.5113
rradius 29.893
rwrist -80.4164
rhand -59.3923 -41.601
rfingers 7.12502
rthumb -31.5732 -68.8917
lclavicle -1.39149e-014 2.46493e-014
lhumerus 69.8338 25.0562 1.9788
lradius 42.0224
lwrist 57.9442
lhand -28.6685 -9.83662
lfingers 7.12502
lthumb -2.03156 20.1335
rfemur 33.6577 -10.6348 -3.58578
rtibia 59.0391
rfoot 4.01251 5.52362
rtoes -13.1999
lfemur -47.3852 27.6043 27.7947
ltibia 81.8329
lfoot -19.5723 8.47788
ltoes 11.1608
190
root -4.69181 17.1749 1.66947 473.776 -147.626 26.7604
lowerback 20.624 4.55003 -14.4723
upperback 0.5755 1.65783 -11.0212
thorax -11.1333 1.16587 -4.86839
lowerneck -32.6181 -2.49909 -0.709475
upperneck -10.0214 -4.65507 7.19303
head 1.80393 -2.83423 1.94183
rclavicle -4.05521e-014 -1.19271e-014
rhumerus 66.3406 -3.74939 -28.087
rradius 30.5737
rwrist -80.8814
rhand -60.242 -43.8134
rfingers 7.12502
rthumb -32.3822 -70.9419
lclavicle -4.05521e-014 -1.19271e-014
lhumerus 69.3355 24.7578 0.889373
lradius 42.403
lwrist 58.365
lhand -28.6878 -9.78506
lfingers 7.12502
lthumb -2.0502 20.1848
rfemur 33.5253 -10.9354 -4.00446
rtibia 59.0634
rfoot 3.59265 4.80538
rtoes -10.8249
lfemur -45.9543 27.2246 28.448
ltibia 82.2615
lfoot -20.2403 8.85445
ltoes 11.4752
